<svg width="78" height="78" viewBox="0 0 78 78" fill="none" xmlns="http://www.w3.org/2000/svg">
<path d="M14.781 8.21201H22.3912V7.62939e-06H25.7003V8.21201H32.2797V7.62939e-06H35.5888V8.21201H42.1682V7.62939e-06H45.4773V8.21201H52.0566V7.62939e-06H55.3657V8.21201H62.976C64.7889 8.21201 66.4402 8.95414 67.6326 10.1532C68.825 11.349 69.5683 13.005 69.5683 14.8231V22.455H77.7569V25.7735H69.5683V32.3717H77.7569V35.6902H69.5683V42.2883H77.7569V45.6068H69.5683V52.2049H77.7569V55.5235H69.5683V63.1554C69.5683 64.9734 68.8282 66.6295 67.6326 67.8253C66.4402 69.0211 64.7889 69.7665 62.976 69.7665H55.3657V77.9785H52.0566V69.7665H45.4773V77.9785H42.1682V69.7665H35.5888V77.9785H32.2797V69.7665H25.7003V77.9785H22.3912V69.7665H14.781C12.9681 69.7665 11.3168 69.0243 10.1243 67.8253C8.9319 66.6295 8.18868 64.9734 8.18868 63.1554V55.5235H0V52.2049H8.18868V45.6068H0V42.2883H8.18868V35.6902H0V32.3717H8.18868V25.7735H0V22.455H8.18868V14.8231C8.18868 13.005 8.9287 11.349 10.1243 10.1532C11.3168 8.95735 12.9681 8.21201 14.781 8.21201ZM62.979 11.5305H14.7805C13.8789 11.5305 13.0549 11.9032 12.4602 12.4963C11.8656 13.0926 11.4972 13.9157 11.4972 14.8232V63.159C11.4972 64.0632 11.8688 64.8896 12.4602 65.4859C13.0548 66.0822 13.8756 66.4517 14.7805 66.4517H62.979C63.8806 66.4517 64.7046 66.079 65.2993 65.4859C65.8939 64.8896 66.2623 64.0665 66.2623 63.159V14.8232C66.2623 13.919 65.8907 13.0926 65.2993 12.4963C64.7047 11.9 63.8839 11.5305 62.979 11.5305Z" fill="#F7F7F5"/>
<path d="M52.5869 16.9226C53.4521 16.9226 54.1533 17.6271 54.1533 18.4938C54.1532 19.3599 53.4545 20.0642 52.5869 20.0642H24.623C23.5846 20.0642 22.6387 20.4899 21.9473 21.1823L21.9482 21.1833C21.259 21.8755 20.833 22.8273 20.833 23.8727V53.2839C20.833 54.329 21.2584 55.2789 21.9482 55.9733L22.0801 56.0993C22.7558 56.7166 23.6489 57.0915 24.623 57.0915H52.5869C53.6256 57.0915 54.5703 56.6651 55.2617 55.9724C55.9508 55.2802 56.376 54.3291 56.376 53.2839V42.8015C56.376 41.9379 57.0744 41.2304 57.9424 41.2302C58.81 41.2302 59.5098 41.9353 59.5098 42.8015V53.2839C59.5097 55.1981 58.7308 56.9334 57.4775 58.1921C56.226 59.449 54.4933 60.2341 52.5869 60.2341H24.623C22.8339 60.2341 21.202 59.544 19.9727 58.4226L19.7324 58.1921C18.4809 56.9353 17.7002 55.1964 17.7002 53.2839V23.8727L17.709 23.5153C17.7994 21.7428 18.5589 20.1441 19.7314 18.9645H19.7324C20.9839 17.7077 22.7167 16.9226 24.623 16.9226H52.5869ZM61.5586 22.8044C62.1833 22.2071 63.1757 22.2317 63.7705 22.861C64.3632 23.4883 64.3403 24.4799 63.7139 25.0769L39.7148 47.9509C39.6784 47.9882 39.6392 48.0246 39.5928 48.0602L39.5918 48.0593C38.929 48.6001 37.9548 48.5097 37.4062 47.8483V47.8493L27.5879 36.0749V36.0759C27.0353 35.4113 27.1225 34.4231 27.7852 33.8669L27.7861 33.8659C28.4475 33.3137 29.4341 33.3967 29.9883 34.0642L38.7373 44.5573L61.5586 22.8044Z" fill="#F7F7F5" stroke="#F7F7F5"/>
</svg>
