<svg width="44" height="44" viewBox="0 0 44 44" fill="none" xmlns="http://www.w3.org/2000/svg">
<path d="M21.9959 0C9.85736 0 0 9.85937 0 22C0 34.1386 9.86008 44 21.9959 44C34.1345 44 44 34.1406 44 22C44 9.86141 34.1345 0 21.9959 0ZM21.9959 2.12752C32.9885 2.12752 41.8783 11.0118 41.8783 22.0006C41.8783 26.6594 40.2791 30.9434 37.6006 34.3303C36.0783 29.042 31.9464 24.8775 26.6875 23.2966C28.9046 21.7933 30.3685 19.2594 30.3685 16.3937C30.3685 11.796 26.6052 8.05606 21.9987 8.05606C17.3922 8.05606 13.6343 11.7958 13.6343 16.3937C13.6343 19.2596 15.0929 21.7935 17.3101 23.2966C12.0511 24.8743 7.91916 29.0417 6.39972 34.3303C3.72114 30.9437 2.12457 26.6597 2.12457 22.0006C2.12457 11.0125 11.0063 2.12752 21.9988 2.12752H21.9959ZM21.9959 10.1809C25.4622 10.1809 28.2442 12.9486 28.2442 16.3935C28.2442 19.8384 25.4595 22.6113 21.9959 22.6113C18.5297 22.6113 15.753 19.8358 15.753 16.3935C15.753 12.9486 18.5297 10.1809 21.9959 10.1809ZM21.9959 24.7361C28.9393 24.7361 34.6593 29.6764 35.8739 36.2423C32.2936 39.7324 27.4009 41.8812 21.9959 41.8812C16.5937 41.8812 11.7034 39.7351 8.12542 36.2476C9.33744 29.6818 15.0498 24.7387 21.9959 24.7387V24.7361Z" fill="#F7F7F5"/>
</svg>
